<svg transform="scale(4)" id="s3f3Plcw9R" xmlns="http://www.w3.org/2000/svg" viewBox="0 0 500 500"
      class="pbimage_pbimage__wrapper__image__0LEis ">
      <title>Password 5</title>
      <g id="monitor">
            <polygon points="185.72 302 290.42 302 314.6 323.39 161.54 323.39 185.72 302"
                  fill="#fff" stroke-width="0"></polygon>
            <path
                  d="M314.6,323.89h-153.06c-.21,0-.39-.13-.47-.32-.07-.19-.02-.41.14-.55l24.18-21.39c.09-.08.21-.12.33-.12h104.7c.12,0,.24.04.33.12l24.18,21.39c.16.14.21.36.14.55-.07.19-.26.32-.47.32ZM162.86,322.89h150.42l-23.05-20.39h-104.32l-23.05,20.39Z"
                  fill="#732a09" stroke-width="0"></path>
            <rect x="199.82" y="282.49" width="74.22" height="28.37" fill="#f45454" stroke-width="0"></rect>
            <path
                  d="M274.04,311.36h-74.22c-.28,0-.5-.22-.5-.5v-28.37c0-.28.22-.5.5-.5h74.22c.28,0,.5.22.5.5v28.37c0,.28-.22.5-.5.5ZM200.32,310.36h73.22v-27.37h-73.22v27.37Z"
                  fill="#732a09" stroke-width="0"></path>
            <rect x="161.54" y="323.39" width="153.06" height="12.53" fill="#f45454"
                  stroke-width="0"></rect>
            <path
                  d="M314.6,336.43h-153.06c-.28,0-.5-.22-.5-.5v-12.54c0-.28.22-.5.5-.5h153.06c.28,0,.5.22.5.5v12.54c0,.28-.22.5-.5.5ZM162.04,335.43h152.06v-11.54h-152.06v11.54Z"
                  fill="#732a09" stroke-width="0"></path>
            <rect x="98.54" y="114.03" width="279.05" height="178.75" rx="4.12" ry="4.12"
                  fill="#fff" stroke-width="0"></rect>
            <path
                  d="M373.48,293.27H102.66c-2.54,0-4.62-2.07-4.62-4.62V118.14c0-2.54,2.07-4.62,4.62-4.62h270.82c2.54,0,4.62,2.07,4.62,4.62v170.51c0,2.54-2.07,4.62-4.62,4.62ZM102.66,114.53c-1.99,0-3.62,1.62-3.62,3.62v170.51c0,1.99,1.62,3.62,3.62,3.62h270.82c1.99,0,3.62-1.62,3.62-3.62V118.14c0-1.99-1.62-3.62-3.62-3.62H102.66Z"
                  fill="#732a09" stroke-width="0"></path>
            <rect x="105.16" y="121.13" width="265.83" height="149.13" fill="#fff" stroke-width="0"></rect>
            <path
                  d="M370.98,270.75H105.16c-.28,0-.5-.22-.5-.5V121.13c0-.28.22-.5.5-.5h265.83c.28,0,.5.22.5.5v149.12c0,.28-.22.5-.5.5ZM105.66,269.75h264.83V121.63H105.66v148.12Z"
                  fill="#732a09" stroke-width="0"></path>
      </g>
      <g id="lock">
            <path
                  d="M265.96,185.33c-2.44,0-4.42-1.98-4.42-4.42v-17.23c0-12.94-10.53-23.47-23.47-23.47s-23.47,10.53-23.47,23.47v17.23c0,2.44-1.98,4.42-4.42,4.42s-4.42-1.98-4.42-4.42v-17.23c0-17.82,14.5-32.32,32.32-32.32s32.32,14.5,32.32,32.32v17.23c0,2.44-1.98,4.42-4.42,4.42Z"
                  fill="#f75454" stroke-width="0"></path>
            <path
                  d="M265.96,185.83c-2.71,0-4.92-2.21-4.92-4.92v-17.23c0-12.67-10.3-22.97-22.97-22.97s-22.97,10.3-22.97,22.97v17.23c0,2.71-2.21,4.92-4.92,4.92s-4.92-2.21-4.92-4.92v-17.23c0-18.1,14.72-32.82,32.82-32.82s32.82,14.72,32.82,32.82v17.23c0,2.71-2.21,4.92-4.92,4.92ZM238.07,139.71c13.22,0,23.97,10.75,23.97,23.97v17.23c0,2.16,1.76,3.92,3.92,3.92s3.92-1.76,3.92-3.92v-17.23c0-17.54-14.27-31.82-31.82-31.82s-31.82,14.27-31.82,31.82v17.23c0,2.16,1.76,3.92,3.92,3.92s3.92-1.76,3.92-3.92v-17.23c0-13.22,10.75-23.97,23.97-23.97Z"
                  fill="#732a09" stroke-width="0"></path>
            <rect x="194.66" y="176.48" width="86.82" height="67.88" rx="8.86" ry="8.86" fill="#fff"
                  stroke-width="0"></rect>
            <path
                  d="M272.62,244.86h-69.11c-5.16,0-9.36-4.2-9.36-9.36v-50.17c0-5.16,4.2-9.36,9.36-9.36h69.11c5.16,0,9.36,4.2,9.36,9.36v50.17c0,5.16-4.2,9.36-9.36,9.36ZM203.51,176.98c-4.61,0-8.36,3.75-8.36,8.36v50.17c0,4.61,3.75,8.36,8.36,8.36h69.11c4.61,0,8.36-3.75,8.36-8.36v-50.17c0-4.61-3.75-8.36-8.36-8.36h-69.11Z"
                  fill="#732a09" stroke-width="0"></path>
            <path
                  d="M242.54,209.27l2.61,13.95c.32,1.72-1,3.32-2.75,3.32h-8.65c-1.76,0-3.08-1.6-2.75-3.32l2.64-13.94c-3.53-1.93-5.63-6.06-4.5-10.49.8-3.14,3.36-5.72,6.5-6.54,6.13-1.59,11.67,3.02,11.67,8.94,0,3.47-1.93,6.5-4.77,8.08Z"
                  fill="#732a09" stroke-width="0"></path>
      </g>
      <g id="key">
            <path
                  d="M319.14,214.55v10.77l-24.73-7.34-3.54,10.28c-.48,1.38-1.77,2.25-3.16,2.25-.32,0-.65-.04-.97-.14-1.82-.54-2.81-2.49-2.2-4.28l3.44-10.02-5.65-1.68-4.42,12.87c-.48,1.38-1.77,2.25-3.16,2.25-.32,0-.65-.04-.97-.14-1.82-.54-2.82-2.49-2.2-4.28l4.32-12.6-4.2-1.25c-2.73-.81-4.29-3.69-3.48-6.42.66-2.25,2.72-3.69,4.95-3.69.48,0,.98.06,1.47.21l44.5,13.21Z"
                  fill="#fff" stroke-width="0"></path>
            <path
                  d="M287.71,231.01c-.4,0-.77-.05-1.12-.16-1-.3-1.82-.97-2.3-1.91-.49-.94-.57-2.01-.22-3.01l3.27-9.53-4.69-1.39-4.26,12.42c-.54,1.55-2,2.59-3.63,2.59-.4,0-.77-.05-1.12-.16-1-.3-1.83-.98-2.31-1.92-.48-.94-.56-2-.21-3l4.15-12.11-3.7-1.1c-2.99-.89-4.71-4.05-3.82-7.04.7-2.38,2.93-4.05,5.43-4.05.57,0,1.11.08,1.62.23l44.5,13.21c.21.06.36.26.36.48v10.77c0,.16-.07.31-.2.4-.13.1-.29.12-.44.08l-24.27-7.2-3.38,9.83c-.54,1.55-2,2.59-3.63,2.59ZM282.33,213.89s.09,0,.14.02l5.65,1.68c.13.04.24.13.3.25s.07.26.03.39l-3.44,10.02c-.25.74-.19,1.53.17,2.23.36.69.96,1.19,1.7,1.41.26.08.53.12.83.12,1.21,0,2.29-.77,2.69-1.91l3.54-10.28c.09-.25.36-.39.62-.32l24.09,7.15v-9.73l-44.14-13.1c-.41-.13-.86-.19-1.33-.19-2.06,0-3.9,1.37-4.47,3.33-.73,2.47.68,5.07,3.14,5.8l4.2,1.25c.13.04.24.13.3.25s.07.26.03.39l-4.32,12.6c-.25.74-.2,1.52.16,2.22s.96,1.2,1.71,1.42c.26.08.53.12.83.12,1.21,0,2.29-.77,2.69-1.91l4.42-12.87c.07-.21.26-.34.47-.34Z"
                  fill="#732a09" stroke-width="0"></path>
            <polygon points="393.55 236.63 390.61 246.54 377.6 242.67 377.6 231.9 393.55 236.63"
                  fill="#fff" stroke-width="0"></polygon>
            <path
                  d="M390.61,247.04s-.09,0-.14-.02l-13.01-3.86c-.21-.06-.36-.26-.36-.48v-10.77c0-.16.07-.31.2-.4.13-.09.29-.12.44-.08l15.95,4.73c.13.04.23.12.3.24s.08.25.04.38l-2.94,9.9c-.06.22-.26.36-.48.36ZM378.1,242.3l12.17,3.61,2.66-8.94-14.83-4.4v9.73Z"
                  fill="#732a09" stroke-width="0"></path>
            <path
                  d="M398.11,234.66c-2.41-2.41-7.23-1.95-9.87,6.66s.11,12.74,4.94,10.79,4.94-17.45,4.94-17.45Z"
                  fill="#fff" stroke-width="0"></path>
            <path
                  d="M390.99,253.08c-1.02,0-1.91-.33-2.62-.97-1.97-1.8-2.19-5.79-.61-10.94,1.9-6.19,4.75-7.75,6.29-8.13,1.6-.4,3.21.06,4.42,1.27.09.09.15.22.15.36,0,.65-.18,15.86-5.25,17.91-.84.34-1.64.51-2.38.51ZM395.17,233.9c-.29,0-.58.04-.88.11-1.33.33-3.82,1.74-5.57,7.46-1.44,4.7-1.32,8.4.33,9.91,1.17,1.07,2.79.74,3.94.27,3.64-1.47,4.56-12.4,4.62-16.78-.7-.64-1.56-.97-2.44-.97Z"
                  fill="#732a09" stroke-width="0"></path>
            <path
                  d="M421.36,249.91c-2.29,7.22-8.13,21.89-4.54,22.46s15.96-29.62,15.96-29.62l-11.42,7.15Z"
                  fill="#fff" stroke-width="0"></path>
            <path
                  d="M416.88,272.88s-.09,0-.14-.01c-.48-.08-.88-.35-1.14-.78-1.37-2.27.8-9.12,3.78-17.84.56-1.65,1.09-3.19,1.5-4.48.04-.11.11-.21.21-.27l11.42-7.15c.18-.12.42-.1.59.04.17.14.22.37.14.57-2.9,7.08-12.57,29.93-16.36,29.93ZM421.78,250.24c-.4,1.26-.91,2.75-1.45,4.33-2.03,5.95-5.11,14.95-3.87,17,.11.19.25.28.44.31.02,0,.04,0,.06,0,2.02,0,8.93-13.85,14.76-27.87l-9.94,6.23Z"
                  fill="#732a09" stroke-width="0"></path>
            <path
                  d="M422.12,240.76s-20.57,19.62-20.38,21.72,8.08,1.33,13.95-3.81,19.2-17.91,19.2-17.91l-2.11-3.81-10.66,3.81Z"
                  fill="#fff" stroke-width="0"></path>
            <path
                  d="M404.2,264.06c-.76,0-1.4-.1-1.88-.29-.87-.35-1.05-.93-1.08-1.25-.2-2.17,15.67-17.48,20.54-22.12.05-.05.11-.08.18-.11l10.66-3.81c.23-.08.49.01.61.23l2.11,3.81c.11.2.07.45-.09.6-.13.13-13.41,12.83-19.21,17.92-3.96,3.47-8.81,5.02-11.82,5.02ZM422.39,241.19c-9.67,9.23-20,19.8-20.15,21.26.01.14.17.28.45.39,2.04.82,8.14-.58,12.67-4.55,5.32-4.67,16.96-15.77,18.91-17.63l-1.71-3.1-10.16,3.63Z"
                  fill="#732a09" stroke-width="0"></path>
            <path
                  d="M430.92,232.06c-10.7,3.36-26.89,7.93-27.27,10.41s3.72,4.19,12.05,2.29,20.15-5.94,20.15-5.94l-1.91-5.68-3.02-1.08Z"
                  fill="#fff" stroke-width="0"></path>
            <path
                  d="M409.34,246.08c-2.47,0-4.33-.49-5.38-1.47-.66-.61-.94-1.38-.81-2.21.35-2.25,9.17-5.12,22.58-9.25,1.75-.54,3.45-1.06,5.04-1.56.1-.03.21-.03.32,0l3.02,1.08c.14.05.26.17.31.31l1.91,5.68c.09.26-.05.54-.31.63-.12.04-11.93,4.07-20.2,5.96-2.44.56-4.62.83-6.47.83ZM430.91,232.59c-1.54.48-3.19.99-4.88,1.51-8.61,2.65-21.61,6.65-21.89,8.45-.08.5.09.95.5,1.33,1.21,1.12,4.71,1.82,10.94.39,7.28-1.66,17.34-5,19.62-5.77l-1.67-4.98-2.63-.94Z"
                  fill="#732a09" stroke-width="0"></path>
            <path
                  d="M438.51,229.13s-3.43-8.76-12.38-11.23c-8.96-2.48-26.1,0-33.34,27.81-7.24,27.81,4.95,36.96,15.81,36.96s27.82-13.91,31.43-30.87c0,0,2.48-10.85-1.52-22.67ZM432.23,250.07c-3.04,14.24-17.34,24.6-23.63,24.6-2.13,0-5.13-.58-7.25-3.32-1.94-2.52-4.64-8.94-.82-23.63,5.11-19.63,14.73-22.56,20.01-22.56,1.52,0,2.72.24,3.46.45,1.71.47,3.09,1.42,4.17,2.44,1.82,1.74,2.99,4.03,3.58,6.47,2,8.27.49,15.47.48,15.55Z"
                  fill="#fff" stroke-width="0"></path>
            <path
                  d="M408.6,283.17c-5.71,0-10.67-2.35-13.97-6.62-3.54-4.58-6.82-13.68-2.32-30.97,3.29-12.65,8.88-21.32,16.62-25.78,7.59-4.38,14.65-3.13,17.34-2.38,9.09,2.51,12.57,11.16,12.71,11.53,0,0,0,.01,0,.02,4,11.82,1.56,22.83,1.53,22.94-3.58,16.83-20.55,31.26-31.92,31.26ZM420.49,217.66c-3.1,0-7,.66-11.07,3-7.5,4.32-12.93,12.79-16.15,25.17-4.4,16.9-1.26,25.7,2.15,30.1,4.19,5.42,10.06,6.23,13.18,6.23,11.01,0,27.45-14.06,30.94-30.47.03-.11,2.4-10.86-1.5-22.39-.13-.33-3.58-8.58-12.04-10.92-1.13-.31-3.07-.72-5.5-.72ZM408.6,275.17c-2.25,0-5.4-.61-7.65-3.51-2-2.6-4.78-9.18-.91-24.06,5.19-19.96,15.07-22.93,20.49-22.93,1.61,0,2.84.25,3.6.47,1.56.43,3.03,1.29,4.38,2.56,1.79,1.71,3.07,4.03,3.72,6.72,1.86,7.67.74,14.44.49,15.72,0,0,0,.05,0,.05-3.08,14.44-17.69,25-24.12,25ZM420.54,225.66c-5.14,0-14.5,2.88-19.53,22.19-3.76,14.47-1.16,20.75.73,23.2,2,2.58,4.83,3.12,6.85,3.12,6.15,0,20.16-10.22,23.14-24.2,0-.01,0-.03,0-.03.24-1.24,1.33-7.83-.48-15.3-.6-2.5-1.79-4.65-3.44-6.23-1.22-1.15-2.55-1.93-3.96-2.32-.7-.2-1.84-.43-3.33-.43ZM432.23,250.07h0,0Z"
                  fill="#732a09" stroke-width="0"></path>
            <path
                  d="M445.37,262.47s-21.15-5.33-27.05-.95,6.86,10.19,18.29,15.57,25.34,9.57,36.96,16.81c0,0,14.86-12.62,14.48-20.79,0,0-12.38-12.17-21.91-23.79s-11.62-24.19-27.62-20.19c0,0,3.62,11.05,1.52,22.67l5.33,10.67Z"
                  fill="#fff" stroke-width="0"></path>
            <path
                  d="M473.56,294.41c-.09,0-.18-.03-.26-.08-7.45-4.64-15.85-8.02-23.96-11.29-4.56-1.84-8.87-3.57-12.94-5.49l-.92-.43c-9.63-4.53-18.73-8.81-19.14-12.9-.11-1.14.45-2.19,1.68-3.1,5.33-3.95,22.01-.41,26.42.62l-4.85-9.71c-.05-.1-.06-.21-.04-.31,2.05-11.36-1.47-22.32-1.51-22.43-.04-.13-.03-.28.04-.4.07-.12.18-.21.32-.24,12.42-3.1,16.72,3.53,22.17,11.92,1.79,2.76,3.64,5.61,5.97,8.44,9.4,11.47,21.75,23.63,21.87,23.75.09.09.14.21.15.33.39,8.32-14.04,20.67-14.65,21.19-.09.08-.21.12-.32.12ZM426.4,260.29c-3.28,0-6.16.43-7.79,1.64-.94.7-1.36,1.42-1.28,2.2.35,3.52,10.03,8.07,18.57,12.09l.92.43c4.05,1.91,8.34,3.64,12.89,5.47,8.04,3.24,16.36,6.59,23.8,11.18,1.99-1.75,14.15-12.72,14.04-19.96-1.41-1.4-12.92-12.85-21.8-23.69-2.36-2.88-4.23-5.75-6.03-8.53-5.36-8.25-9.25-14.25-20.57-11.62.67,2.32,3.2,12.1,1.42,22.23l5.26,10.52c.09.17.06.38-.06.54-.12.15-.33.22-.51.17-.15-.04-10.73-2.67-18.85-2.67Z"
                  fill="#732a09" stroke-width="0"></path>
            <path
                  d="M319.14,243.49c-.28,0-.5-.22-.5-.5v-55.13c0-.28.22-.5.5-.5s.5.22.5.5v55.13c0,.28-.22.5-.5.5Z"
                  fill="#732a09" stroke-width="0"></path>
      </g>
      <g id="keyboard">
            <polygon points="94.9 346.16 381.24 346.16 436.97 396.39 39.17 396.39 94.9 346.16"
                  fill="#fff" stroke-width="0"></polygon>
            <path
                  d="M436.97,396.89H39.17c-.21,0-.39-.13-.47-.32-.07-.19-.02-.41.13-.55l55.73-50.23c.09-.08.21-.13.33-.13h286.33c.12,0,.24.05.33.13l55.73,50.23c.15.14.21.36.13.55-.07.19-.26.32-.47.32ZM40.47,395.89h395.19l-54.62-49.23H95.09l-54.62,49.23Z"
                  fill="#732a09" stroke-width="0"></path>
            <path
                  d="M409.4,387.17H67.91c-.21,0-.4-.13-.47-.33-.07-.2,0-.42.15-.56l40.11-32.97c.09-.07.2-.11.32-.11h261.35c.12,0,.23.04.32.11l40.03,32.97c.16.13.22.36.15.55-.07.2-.26.33-.47.33ZM69.31,386.17h338.7l-38.82-31.97H108.2l-38.89,31.97Z"
                  fill="#732a09" stroke-width="0"></path>
            <path
                  d="M374.68,358.57H102.7c-.28,0-.5-.22-.5-.5s.22-.5.5-.5h271.99c.28,0,.5.22.5.5s-.22.5-.5.5Z"
                  fill="#732a09" stroke-width="0"></path>
            <path
                  d="M380.45,363.32H96.92c-.28,0-.5-.22-.5-.5s.22-.5.5-.5h283.53c.28,0,.5.22.5.5s-.22.5-.5.5Z"
                  fill="#732a09" stroke-width="0"></path>
            <path
                  d="M386.73,368.49H90.63c-.28,0-.5-.22-.5-.5s.22-.5.5-.5h296.09c.28,0,.5.22.5.5s-.22.5-.5.5Z"
                  fill="#732a09" stroke-width="0"></path>
            <path
                  d="M393.58,374.14H83.76c-.28,0-.5-.22-.5-.5s.22-.5.5-.5h309.82c.28,0,.5.22.5.5s-.22.5-.5.5Z"
                  fill="#732a09" stroke-width="0"></path>
            <path
                  d="M401.11,380.33H76.22c-.28,0-.5-.22-.5-.5s.22-.5.5-.5h324.89c.28,0,.5.22.5.5s-.22.5-.5.5Z"
                  fill="#732a09" stroke-width="0"></path>
            <path
                  d="M383.14,387.17c-.13,0-.25-.05-.35-.14l-33.87-32.97c-.2-.19-.2-.51,0-.71.19-.2.51-.2.71,0l33.87,32.97c.2.19.2.51,0,.71-.1.1-.23.15-.36.15Z"
                  fill="#732a09" stroke-width="0"></path>
            <path
                  d="M356.87,387.17c-.14,0-.28-.06-.38-.18l-27.7-32.97c-.18-.21-.15-.53.06-.7.21-.18.53-.15.7.06l27.7,32.97c.18.21.15.53-.06.7-.09.08-.21.12-.32.12Z"
                  fill="#732a09" stroke-width="0"></path>
            <path
                  d="M330.6,387.17c-.16,0-.32-.08-.42-.23l-21.54-32.97c-.15-.23-.09-.54.15-.69.23-.15.54-.09.69.15l21.54,32.97c.15.23.09.54-.15.69-.08.05-.18.08-.27.08Z"
                  fill="#732a09" stroke-width="0"></path>
            <path
                  d="M304.33,387.17c-.19,0-.37-.11-.45-.29l-15.38-32.97c-.12-.25,0-.55.24-.66.25-.12.55,0,.66.24l15.38,32.97c.12.25,0,.55-.24.66-.07.03-.14.05-.21.05Z"
                  fill="#732a09" stroke-width="0"></path>
            <path
                  d="M278.06,387.17c-.22,0-.42-.14-.48-.37l-9.21-32.97c-.07-.27.08-.54.35-.62.27-.08.54.08.62.35l9.21,32.97c.07.27-.08.54-.35.62-.04.01-.09.02-.13.02Z"
                  fill="#732a09" stroke-width="0"></path>
            <path
                  d="M251.79,387.17c-.25,0-.47-.19-.5-.45l-3.05-32.97c-.03-.27.18-.52.45-.54.27-.02.52.18.54.45l3.05,32.97c.03.27-.18.52-.45.54-.02,0-.03,0-.05,0Z"
                  fill="#732a09" stroke-width="0"></path>
            <path
                  d="M225.53,387.17s-.03,0-.05,0c-.28-.03-.48-.27-.45-.54l3.12-32.97c.03-.28.29-.47.54-.45.28.03.48.27.45.54l-3.12,32.97c-.02.26-.24.45-.5.45Z"
                  fill="#732a09" stroke-width="0"></path>
            <path
                  d="M199.26,387.17s-.09,0-.14-.02c-.27-.08-.42-.35-.35-.62l9.28-32.97c.08-.27.35-.42.62-.35.27.08.42.35.35.62l-9.28,32.97c-.06.22-.26.36-.48.36Z"
                  fill="#732a09" stroke-width="0"></path>
            <path
                  d="M172.99,387.17c-.07,0-.14-.01-.21-.05-.25-.12-.36-.42-.24-.67l15.45-32.97c.12-.25.42-.36.67-.24.25.12.36.42.24.67l-15.45,32.97c-.08.18-.27.29-.45.29Z"
                  fill="#732a09" stroke-width="0"></path>
            <path
                  d="M146.72,387.17c-.09,0-.19-.03-.27-.08-.23-.15-.29-.46-.14-.69l21.61-32.97c.15-.23.46-.29.69-.14s.29.46.14.69l-21.61,32.97c-.1.15-.26.23-.42.23Z"
                  fill="#732a09" stroke-width="0"></path>
            <path
                  d="M120.45,387.17c-.11,0-.23-.04-.32-.12-.21-.18-.24-.49-.06-.71l27.78-32.97c.18-.21.49-.24.71-.06.21.18.24.49.06.71l-27.78,32.97c-.1.12-.24.18-.38.18Z"
                  fill="#732a09" stroke-width="0"></path>
            <path
                  d="M94.18,387.17c-.13,0-.26-.05-.36-.15-.19-.2-.19-.51,0-.71l33.94-32.97c.2-.19.52-.19.71,0,.19.2.19.51,0,.71l-33.94,32.97c-.1.09-.22.14-.35.14Z"
                  fill="#732a09" stroke-width="0"></path>
            <polygon points="42.66 405.52 433.48 405.52 436.97 396.39 39.17 396.39 42.66 405.52"
                  fill="#732a09" stroke-width="0"></polygon>
            <path
                  d="M433.48,406.02H42.66c-.21,0-.39-.13-.47-.32l-3.49-9.13c-.06-.15-.04-.33.05-.46.09-.14.25-.22.41-.22h397.79c.16,0,.32.08.41.22.09.13.11.31.05.46l-3.49,9.13c-.07.19-.26.32-.47.32ZM43,405.02h390.13l3.1-8.13H39.9l3.1,8.13Z"
                  fill="#732a09" stroke-width="0"></path>
      </g>
</svg>