<svg width="612" height="524" viewBox="0 0 612 524" fill="none" xmlns="http://www.w3.org/2000/svg">
<g clip-path="url(#clip0_100_156)">
<path d="M84.1047 513.252C82.8877 513.328 82.2151 511.816 83.1359 510.934L83.2275 510.57L83.1911 510.483C81.9603 507.548 77.7891 507.568 76.5688 510.507C75.4857 513.116 74.1067 515.729 73.7671 518.487C73.6149 519.705 73.6834 520.945 73.9536 522.14C71.4157 516.596 70.0802 510.543 70.0802 504.455C70.0802 502.925 70.1639 501.396 70.3351 499.87C70.4759 498.622 70.6699 497.381 70.9211 496.152C72.2794 489.509 75.2206 483.182 79.4631 477.896C81.5025 476.782 83.2033 475.039 84.2306 472.95C84.5997 472.197 84.8889 471.386 85.0259 470.561C84.7938 470.591 84.1507 467.056 84.3258 466.839C84.0023 466.349 83.4234 466.105 83.0701 465.626C81.3133 463.244 78.8927 463.66 77.6291 466.896C74.9297 468.259 74.9036 470.518 76.5599 472.691C77.6137 474.074 77.7585 475.945 78.6831 477.425C78.5879 477.546 78.489 477.664 78.3939 477.786C76.6495 480.023 75.1408 482.428 73.869 484.955C74.2284 482.147 73.6978 478.764 72.7931 476.584C71.7632 474.099 69.8329 472.007 68.133 469.859C66.0912 467.279 61.9042 468.405 61.5445 471.676L61.5343 471.771C61.7868 471.913 62.0342 472.064 62.2758 472.224C63.654 473.136 63.1777 475.272 61.5447 475.524L61.5077 475.53C61.599 476.439 61.755 477.341 61.9833 478.228C59.8026 486.661 64.5106 489.733 71.233 489.871C71.3814 489.947 71.526 490.023 71.6744 490.095C70.9933 492.013 70.4492 493.98 70.0459 495.974C69.6844 497.735 69.4333 499.516 69.2925 501.304C69.1175 503.561 69.1327 505.828 69.323 508.081L69.3116 508.001C68.8284 505.52 67.4814 503.203 65.5257 501.597C62.6122 499.204 58.496 498.323 55.3529 496.399C53.8399 495.473 51.9011 496.67 52.1652 498.424L52.1781 498.508C52.6461 498.698 53.1026 498.919 53.544 499.166C53.7965 499.308 54.0439 499.46 54.2855 499.619C55.6637 500.531 55.1874 502.667 53.5543 502.919L53.5173 502.925L53.4413 502.937C54.2441 504.843 55.3627 506.612 56.7629 508.138C58.1265 515.5 63.983 516.198 70.2475 514.055H70.2514C70.9362 517.038 71.9369 519.952 73.223 522.73H83.8387C83.8768 522.612 83.911 522.49 83.9453 522.372C82.9636 522.433 81.9743 522.376 81.0078 522.197C81.7955 521.231 82.5831 520.257 83.3707 519.29C83.3897 519.271 83.405 519.252 83.4202 519.233C83.8197 518.738 84.223 518.248 84.6225 517.753C84.6475 516.235 84.4654 514.72 84.1047 513.252Z" fill="#F2F2F2"/>
<path d="M535.947 513.252C537.164 513.328 537.837 511.816 536.916 510.934L536.824 510.57L536.861 510.483C538.091 507.548 542.263 507.568 543.483 510.507C544.566 513.116 545.945 515.729 546.285 518.487C546.437 519.705 546.368 520.945 546.098 522.14C548.636 516.596 549.972 510.543 549.972 504.455C549.972 502.925 549.888 501.396 549.717 499.87C549.576 498.622 549.382 497.381 549.131 496.152C547.772 489.509 544.831 483.182 540.589 477.896C538.549 476.782 536.848 475.039 535.821 472.95C535.452 472.197 535.163 471.386 535.026 470.561C535.258 470.591 535.901 467.056 535.726 466.839C536.049 466.349 536.628 466.105 536.982 465.626C538.738 463.244 541.159 463.66 542.423 466.896C545.122 468.259 545.148 470.518 543.492 472.691C542.438 474.074 542.293 475.945 541.369 477.425C541.464 477.546 541.563 477.664 541.658 477.786C543.402 480.023 544.911 482.428 546.183 484.955C545.823 482.147 546.354 478.764 547.259 476.584C548.289 474.099 550.219 472.007 551.919 469.859C553.961 467.279 558.147 468.405 558.507 471.676L558.517 471.771C558.265 471.913 558.018 472.064 557.776 472.224C556.398 473.136 556.874 475.272 558.507 475.524L558.544 475.53C558.453 476.439 558.297 477.341 558.068 478.228C560.249 486.661 555.541 489.733 548.819 489.871C548.67 489.947 548.526 490.023 548.377 490.095C549.058 492.013 549.603 493.98 550.006 495.974C550.367 497.735 550.619 499.516 550.759 501.304C550.934 503.561 550.919 505.828 550.729 508.081L550.74 508.001C551.223 505.52 552.57 503.203 554.526 501.597C557.44 499.204 561.556 498.323 564.699 496.399C566.212 495.473 568.151 496.67 567.887 498.424L567.874 498.508C567.406 498.698 566.949 498.919 566.508 499.166C566.255 499.308 566.008 499.46 565.766 499.619C564.388 500.531 564.864 502.667 566.497 502.919L566.534 502.925L566.61 502.937C565.808 504.843 564.689 506.612 563.289 508.138C561.925 515.5 556.069 516.198 549.804 514.055H549.8C549.115 517.038 548.115 519.952 546.829 522.73H536.213C536.175 522.612 536.141 522.49 536.106 522.372C537.088 522.433 538.077 522.376 539.044 522.197C538.256 521.231 537.469 520.257 536.681 519.29C536.662 519.271 536.647 519.252 536.631 519.233C536.232 518.738 535.829 518.248 535.429 517.753C535.404 516.235 535.586 514.72 535.947 513.252Z" fill="#F2F2F2"/>
<path d="M330.425 517.749L339.538 517.748L343.872 482.6L330.423 482.601L330.425 517.749Z" fill="#FFB6B6"/>
<path d="M361.645 517.542C361.929 518.02 362.078 519.562 362.078 520.118C362.078 521.826 360.694 523.21 358.986 523.21H330.766C329.601 523.21 328.656 522.266 328.656 521.101V519.926C328.656 519.926 327.26 516.395 330.134 512.042C330.134 512.042 333.706 515.45 339.044 510.112L340.618 507.261L352.012 515.594L358.328 516.371C359.709 516.541 360.934 516.345 361.645 517.542Z" fill="#2F2E41"/>
<path d="M267.493 517.749L276.605 517.748L280.94 482.6L267.491 482.601L267.493 517.749Z" fill="#FFB6B6"/>
<path d="M298.713 517.542C298.997 518.02 299.146 519.562 299.146 520.118C299.146 521.826 297.762 523.21 296.054 523.21H267.834C266.669 523.21 265.724 522.266 265.724 521.101V519.926C265.724 519.926 264.328 516.395 267.202 512.042C267.202 512.042 270.774 515.45 276.112 510.112L277.686 507.261L289.08 515.594L295.396 516.371C296.777 516.541 298.002 516.345 298.713 517.542Z" fill="#2F2E41"/>
<path d="M1.01849 523.953H610.474C611.036 523.953 611.492 523.497 611.492 522.934C611.492 522.372 611.036 521.916 610.474 521.916H1.01849C0.45599 521.916 0 522.372 0 522.934C0 523.497 0.45599 523.953 1.01849 523.953Z" fill="#E6E6E6"/>
<path d="M333.149 351.75L336.526 356.192C336.526 356.192 336.832 358.266 341.954 375.166L344.764 502.188H327.764L305.045 400.555L281.463 504.226L266.728 505.095L267.419 387.262C267.419 387.262 265.867 383.162 267.187 378.357C272.239 359.965 271.948 364.814 272.155 358.518C272.418 350.536 333.149 351.75 333.149 351.75Z" fill="#2F2E41"/>
<path d="M306.353 245.009C316.204 245.009 324.19 237.023 324.19 227.172C324.19 217.321 316.204 209.335 306.353 209.335C296.502 209.335 288.516 217.321 288.516 227.172C288.516 237.023 296.502 245.009 306.353 245.009Z" fill="#FEB8B8"/>
<path d="M296.763 248.365L286.893 253.82C278.658 254.417 272.752 256.608 267.505 259.249L273.292 309.987L272.239 359.965C272.239 359.965 305.058 382.448 336.528 356.191V288.283L335.05 261.278C334.878 258.129 332.093 255.686 328.967 256.1C327.182 256.336 325.126 256.29 323.026 255.59L316.493 248.009L296.763 248.365Z" fill="#007CFF"/>
<path d="M352.567 206.509C353.562 208.753 353.968 211.037 353.836 213.016L364.669 233.802L354.627 238.668L344.72 217.059C343.164 215.827 341.744 213.993 340.749 211.748C338.475 206.62 339.278 201.29 342.541 199.843C345.804 198.396 350.293 201.38 352.567 206.509Z" fill="#FFB6B6"/>
<path d="M323.026 255.59L326.014 256.957C328.756 254.01 337.014 254.473 341.021 254.855L358.63 256.534L350.407 230.809L362.786 225.828L377.578 254.295C378.473 259.124 376.466 264.031 372.443 266.849L334.703 288.281L330.316 258.924L323.026 255.59Z" fill="#007CFF"/>
<path d="M231.763 376.255C231.951 373.807 232.676 371.604 233.731 369.923L234.048 346.486L245.196 346.963L243.674 370.687C244.46 372.508 244.84 374.796 244.652 377.245C244.223 382.838 240.989 387.151 237.43 386.877C233.871 386.604 231.333 381.848 231.763 376.255Z" fill="#FFB6B6"/>
<path d="M275.766 265.66L270.644 257.879C270.644 257.879 262.289 259.474 257.849 265.773C253.41 272.073 236.629 310.707 236.629 310.707L233.407 354.321L245.888 351.75L251.911 318.674L271.276 292.212L275.766 265.66Z" fill="#007CFF"/>
<path d="M324.19 229.538C324.86 226.138 314.521 221.189 314.54 221.195C316.144 221.707 313.62 224.648 311.972 224.301C311.972 224.301 309.549 225.533 310.869 226.593C306.319 226.203 300.24 221.879 295.69 221.489C293.86 221.329 293.151 225.742 292.001 227.172C290.261 229.362 288.516 225.007 289.16 230.809H288.9C287.95 228.519 287 226.189 286.69 223.729C286.39 221.269 286.81 218.619 288.38 216.699C288.9 216.049 286.857 213.909 287.407 213.289C289.157 211.279 292.55 210.179 294.11 208.029C296.175 205.181 298.524 207.191 302.824 204.796C303.949 204.17 305.904 203.944 307.15 204.269L310.06 205.029C309.493 205.88 310.195 207.003 311.208 206.865L315 206.349C316.43 206.809 317.79 207.489 318.43 208.799C318.82 209.579 318.89 210.489 319.19 211.309C319.74 212.819 321.04 213.909 322.08 215.129C324.876 215.943 325.026 218.033 325.026 221.538C327.631 223 324.913 226.268 324.19 229.538Z" fill="#2F2E41"/>
<path d="M32.3055 64.6695C33.1174 62.3897 35.3816 61.0441 37.6868 61.3026C38.6476 61.4103 39.6074 61.4958 40.5725 61.4391C64.6423 60.0235 94.4548 73.8053 126.191 92.6787C97.1384 69.1703 70.5481 48.3746 39.2742 69.7455C37.0404 71.272 33.8754 70.7328 32.576 68.3597C32.054 67.4063 31.8654 66.2638 32.1768 65.0853C32.2135 64.9462 32.2564 64.8075 32.3055 64.6695Z" fill="#E6E6E6"/>
<path d="M192.839 8.28247C194.823 9.54736 195.639 11.9529 194.978 14.0974L194.903 14.3393C194.241 16.4921 192.797 18.3008 190.885 19.4912C163.516 36.5296 195.204 58.3348 144.551 93.531C169.079 67.2842 189.254 6.50198 192.319 7.99162C192.496 8.07742 192.669 8.1743 192.839 8.28247Z" fill="#E6E6E6"/>
<path d="M234.79 141.519C233.769 143.639 231.478 144.735 229.27 144.333L229.021 144.288C226.805 143.885 224.837 142.667 223.428 140.909C203.262 115.756 185.372 149.808 144.412 103.691C173.385 124.931 236.132 137.748 235.017 140.968C234.953 141.154 234.877 141.338 234.79 141.519Z" fill="#E6E6E6"/>
<path d="M197.929 139.947C196.879 140.53 195.185 140.448 193.818 139.816L193.663 139.745C192.29 139.111 191.228 138.221 190.627 137.248C182.032 123.321 164.184 132.359 145.824 105.959C160.875 120.313 199.489 138.808 198.177 139.788C198.102 139.844 198.019 139.897 197.929 139.947Z" fill="#E6E6E6"/>
<path d="M206.212 84.3984C205.952 85.5712 204.768 86.7853 203.389 87.3901L203.233 87.4584C201.848 88.066 200.477 88.2717 199.351 88.0764C183.226 85.2809 178.162 104.635 146.225 100.882C166.95 99.1278 206.393 82.4753 206.257 84.1068C206.249 84.2008 206.234 84.2981 206.212 84.3984Z" fill="#E6E6E6"/>
<path d="M44.8319 157.144C43.6743 155.096 44.0831 152.588 45.674 151.006L45.8535 150.827C47.4496 149.238 49.5733 148.319 51.8206 148.166C83.9853 145.975 66.2481 111.843 127.496 104.555C93.5155 116.209 47.1607 160.399 45.1542 157.645C45.0386 157.486 44.9309 157.319 44.8319 157.144Z" fill="#E6E6E6"/>
<path d="M174.185 156.776C172.995 157.57 171.468 157.412 170.452 156.487L170.338 156.383C169.318 155.455 168.681 154.176 168.502 152.791C165.933 132.97 146.049 145.235 139.28 107.61C147.623 128.197 176.057 155.212 174.474 156.558C174.383 156.635 174.287 156.708 174.185 156.776Z" fill="#E6E6E6"/>
<path d="M138.16 189.377C136.338 189.392 134.804 188.167 134.344 186.486L134.292 186.296C133.83 184.609 134.021 182.815 134.775 181.227C145.571 158.49 115.796 157.684 134.254 113.212C129.144 140.759 141.243 189.02 138.621 189.347C138.47 189.366 138.316 189.376 138.16 189.377Z" fill="#007CFF"/>
<path d="M72.1953 158.306C71.0211 156.912 70.986 154.949 71.9874 153.522L72.1004 153.361C73.1049 151.929 74.6079 150.932 76.3124 150.499C100.709 144.309 82.3357 120.865 128.358 106.71C103.884 120.348 74.4368 160.452 72.5125 158.641C72.4016 158.537 72.2957 158.425 72.1953 158.306Z" fill="#007CFF"/>
<path d="M86.9977 137.952C86.2551 137.258 86.2351 136.214 86.8715 135.413L86.9432 135.323C87.5815 134.519 88.5353 133.926 89.6161 133.625C105.086 129.321 93.4677 117.596 122.653 108.158C107.126 116.43 88.416 139.002 87.1984 138.117C87.1282 138.066 87.0612 138.011 86.9977 137.952Z" fill="#007CFF"/>
<path d="M108.632 152.785C107.693 152.397 107.307 151.426 107.621 150.453L107.657 150.343C107.972 149.366 108.656 148.475 109.563 147.814C122.533 138.348 107.535 131.454 131.542 112.361C119.913 125.563 110.329 153.27 108.878 152.869C108.794 152.846 108.712 152.818 108.632 152.785Z" fill="#E6E6E6"/>
<path d="M45.3402 87.0238L47.6994 94.2847H55.3339L49.1574 98.7721L51.5166 106.033L45.3402 101.546L39.1637 106.033L41.5229 98.7721L35.3464 94.2847H42.981L45.3402 87.0238Z" fill="#007CFF"/>
<path d="M150.548 0L152.907 7.26087H160.542L154.365 11.7483L156.724 19.0092L150.548 14.5217L144.371 19.0092L146.731 11.7483L140.554 7.26087H148.189L150.548 0Z" fill="#E6E6E6"/>
<path d="M206.399 77.9318L208.758 85.1926H216.393L210.217 89.6801L212.576 96.941L206.399 92.4535L200.223 96.941L202.582 89.6801L196.406 85.1926H204.04L206.399 77.9318Z" fill="#007CFF"/>
<path d="M93.398 157.162L95.7572 164.423H103.392L97.2153 168.911L99.5745 176.172L93.398 171.684L87.2216 176.172L89.5808 168.911L83.4043 164.423H91.0388L93.398 157.162Z" fill="#007CFF"/>
<path d="M136.261 77.9318L138.62 85.1926H146.254L140.078 89.6801L142.437 96.941L136.261 92.4535L130.084 96.941L132.443 89.6801L126.267 85.1926H133.901L136.261 77.9318Z" fill="#007CFF"/>
<path d="M195.203 0L197.563 7.26087H205.197L199.021 11.7483L201.38 19.0092L195.203 14.5217L189.027 19.0092L191.386 11.7483L185.21 7.26087H192.844L195.203 0Z" fill="#E6E6E6"/>
<path d="M41.3386 143.502L44.3304 150.526L51.9351 149.851L46.1795 154.867L49.1713 161.891L42.6223 157.967L36.8667 162.983L38.5748 155.542L32.0259 151.618L39.6305 150.943L41.3386 143.502Z" fill="#E6E6E6"/>
<path d="M106.65 9.35391C108.027 8.67594 109.575 9.13328 110.451 10.3617L110.55 10.5003C111.43 11.7327 111.848 13.292 111.775 14.8867C110.725 37.7113 133.553 27.5085 133.516 71.1815C128.745 46.438 104.424 10.7761 106.31 9.54733C106.419 9.47655 106.532 9.4119 106.65 9.35391Z" fill="#007CFF"/>
<path d="M86.7406 43.1853C87.351 42.4232 88.3527 42.3181 89.1708 42.8561L89.2631 42.9167C90.0844 43.4563 90.7267 44.3127 91.0976 45.3138C96.4065 59.6429 106.794 47.6475 118.078 74.5721C108.95 60.5158 85.8387 44.6182 86.5968 43.3894C86.6405 43.3187 86.6884 43.2505 86.7406 43.1853Z" fill="#E6E6E6"/>
<path d="M69.1683 84.8354C69.252 83.8626 70.0261 83.2183 71.0052 83.2106L71.1157 83.2097C72.0983 83.2015 73.1083 83.5563 73.9733 84.1822C86.3527 93.1409 88.3177 77.395 112.666 93.5013C97.264 86.8926 69.2153 86.5279 69.1623 85.0851C69.1592 85.002 69.1611 84.9186 69.1683 84.8354Z" fill="#E6E6E6"/>
<path d="M414.878 124.763C415.406 123.28 416.879 122.404 418.379 122.572C419.004 122.643 419.629 122.698 420.257 122.661C435.917 121.74 455.314 130.707 475.963 142.987C457.06 127.692 439.76 114.161 419.412 128.066C417.958 129.059 415.899 128.708 415.054 127.164C414.714 126.544 414.591 125.8 414.794 125.034C414.818 124.943 414.846 124.853 414.878 124.763Z" fill="#E6E6E6"/>
<path d="M519.327 88.0756C520.618 88.8986 521.149 90.4638 520.719 91.859L520.67 92.0165C520.239 93.4171 519.3 94.5939 518.055 95.3685C500.248 106.454 520.865 120.642 487.909 143.542C503.868 126.464 516.994 86.9172 518.989 87.8864C519.104 87.9422 519.216 88.0053 519.327 88.0756Z" fill="#E6E6E6"/>
<path d="M546.622 174.764C545.958 176.144 544.467 176.857 543.03 176.595L542.868 176.566C541.426 176.304 540.146 175.511 539.229 174.368C526.108 158.002 514.469 180.158 487.818 150.152C506.669 163.972 547.495 172.311 546.769 174.406C546.728 174.527 546.678 174.646 546.622 174.764Z" fill="#E6E6E6"/>
<path d="M522.639 173.742C521.956 174.121 520.853 174.068 519.964 173.657L519.863 173.61C518.97 173.198 518.279 172.619 517.888 171.986C512.295 162.924 500.683 168.804 488.737 151.628C498.53 160.967 523.654 173 522.8 173.638C522.751 173.675 522.697 173.709 522.639 173.742Z" fill="#E6E6E6"/>
<path d="M528.028 137.6C527.859 138.363 527.089 139.153 526.191 139.546L526.09 139.591C525.188 139.986 524.297 140.12 523.564 139.993C513.072 138.174 509.777 150.766 488.998 148.324C502.482 147.183 528.146 136.348 528.057 137.41C528.052 137.471 528.042 137.534 528.028 137.6Z" fill="#E6E6E6"/>
<path d="M423.028 184.931C422.275 183.598 422.541 181.967 423.576 180.937L423.693 180.821C424.731 179.787 426.113 179.189 427.575 179.089C448.503 177.663 436.962 155.456 476.813 150.714C454.703 158.297 424.543 187.049 423.238 185.257C423.162 185.153 423.092 185.045 423.028 184.931Z" fill="#E6E6E6"/>
<path d="M507.19 184.691C506.416 185.208 505.422 185.105 504.761 184.503L504.687 184.435C504.023 183.832 503.609 182.999 503.492 182.098C501.821 169.202 488.883 177.182 484.479 152.702C489.907 166.097 508.407 183.674 507.378 184.549C507.319 184.6 507.256 184.647 507.19 184.691Z" fill="#E6E6E6"/>
<path d="M483.751 205.903C482.565 205.913 481.567 205.115 481.268 204.021L481.234 203.898C480.933 202.8 481.057 201.633 481.548 200.6C488.573 185.807 469.2 185.282 481.21 156.347C477.885 174.27 485.757 205.67 484.051 205.883C483.952 205.895 483.852 205.902 483.751 205.903Z" fill="#007CFF"/>
<path d="M440.832 185.687C440.068 184.78 440.045 183.502 440.696 182.574L440.77 182.469C441.423 181.537 442.401 180.889 443.51 180.607C459.384 176.58 447.429 161.326 477.373 152.116C461.449 160.99 442.29 187.083 441.038 185.905C440.966 185.837 440.897 185.764 440.832 185.687Z" fill="#007CFF"/>
<path d="M450.462 172.444C449.979 171.992 449.966 171.313 450.38 170.792L450.427 170.733C450.842 170.21 451.463 169.824 452.166 169.628C462.231 166.828 454.672 159.199 473.661 153.058C463.558 158.441 451.385 173.127 450.593 172.551C450.547 172.518 450.504 172.482 450.462 172.444Z" fill="#007CFF"/>
<path d="M464.539 182.095C463.928 181.842 463.677 181.21 463.881 180.577L463.904 180.506C464.109 179.87 464.555 179.29 465.144 178.86C473.583 172.701 463.825 168.215 479.445 155.793C471.878 164.383 465.643 182.41 464.699 182.149C464.644 182.134 464.591 182.116 464.539 182.095Z" fill="#E6E6E6"/>
<path d="M423.358 139.308L424.893 144.032H429.861L425.842 146.952L427.377 151.676L423.358 148.756L419.34 151.676L420.875 146.952L416.856 144.032H421.824L423.358 139.308Z" fill="#007CFF"/>
<path d="M491.811 82.6868L493.346 87.411H498.313L494.295 90.3307L495.83 95.0549L491.811 92.1352L487.792 95.0549L489.327 90.3307L485.309 87.411H490.276L491.811 82.6868Z" fill="#E6E6E6"/>
<path d="M528.15 133.392L529.685 138.116H534.652L530.633 141.036L532.168 145.76L528.15 142.841L524.131 145.76L525.666 141.036L521.647 138.116H526.615L528.15 133.392Z" fill="#007CFF"/>
<path d="M454.627 184.943L456.162 189.667H461.129L457.11 192.587L458.645 197.311L454.627 194.391L450.608 197.311L452.143 192.587L448.125 189.667H453.092L454.627 184.943Z" fill="#007CFF"/>
<path d="M482.515 133.392L484.05 138.116H489.017L484.998 141.036L486.533 145.76L482.515 142.841L478.496 145.76L480.031 141.036L476.012 138.116H480.98L482.515 133.392Z" fill="#007CFF"/>
<path d="M520.865 82.6868L522.4 87.411H527.368L523.349 90.3307L524.884 95.0549L520.865 92.1352L516.847 95.0549L518.382 90.3307L514.363 87.411H519.33L520.865 82.6868Z" fill="#E6E6E6"/>
<path d="M420.755 176.055L422.702 180.625L427.649 180.185L423.905 183.449L425.851 188.019L421.59 185.466L417.845 188.73L418.957 183.888L414.696 181.335L419.644 180.896L420.755 176.055Z" fill="#E6E6E6"/>
<path d="M463.249 88.7727C464.145 88.3316 465.152 88.6292 465.722 89.4284L465.786 89.5186C466.359 90.3205 466.631 91.335 466.583 92.3726C465.9 107.223 480.753 100.585 480.729 129C477.625 112.901 461.801 89.6981 463.028 88.8986C463.099 88.8525 463.172 88.8105 463.249 88.7727Z" fill="#007CFF"/>
<path d="M450.295 110.785C450.692 110.289 451.344 110.221 451.877 110.571L451.937 110.61C452.471 110.961 452.889 111.518 453.13 112.17C456.584 121.493 463.343 113.688 470.684 131.206C464.746 122.061 449.709 111.717 450.202 110.918C450.23 110.872 450.261 110.827 450.295 110.785Z" fill="#E6E6E6"/>
<path d="M438.862 137.884C438.916 137.251 439.42 136.832 440.057 136.827L440.129 136.826C440.768 136.821 441.426 137.052 441.988 137.459C450.043 143.288 451.321 133.043 467.163 143.522C457.142 139.222 438.893 138.985 438.858 138.046C438.856 137.992 438.857 137.938 438.862 137.884Z" fill="#E6E6E6"/>
</g>
<defs>
<clipPath id="clip0_100_156">
<rect width="611.492" height="523.953" fill="white"/>
</clipPath>
</defs>
</svg>
