<svg width="9" height="9" viewBox="0 0 9 9" fill="none" xmlns="http://www.w3.org/2000/svg">
<path d="M7.69714 5.88792C8.08283 5.13605 8.18729 4.27115 7.99172 3.44908C7.79614 2.62701 7.31337 1.90182 6.63042 1.40419C5.94747 0.90657 5.10923 0.669236 4.26678 0.734959C3.42432 0.800682 2.63303 1.16514 2.03552 1.76266C1.438 2.36018 1.07354 3.15146 1.00782 3.99392C0.942092 4.83638 1.17943 5.67461 1.67705 6.35756C2.17468 7.04052 2.89986 7.52328 3.72194 7.71886C4.54401 7.91444 5.40891 7.80997 6.16077 7.42428L8.48501 8.21216L7.69714 5.88792Z" stroke="white" stroke-width="0.5" stroke-linecap="round" stroke-linejoin="round"/>
<path d="M6.12305 4.27075H6.11755" stroke="white" stroke-linecap="round" stroke-linejoin="round"/>
<path d="M4.54688 4.27075H4.54137" stroke="white" stroke-linecap="round" stroke-linejoin="round"/>
<path d="M2.97168 4.27075H2.96618" stroke="white" stroke-linecap="round" stroke-linejoin="round"/>
</svg>
