<svg xmlns="http://www.w3.org/2000/svg" width="2500" height="2461" viewBox="0 0 255 251" preserveAspectRatio="xMinYMin meet">
  <path fill="#00758F" d="M2.402 121.09c-.31 0-.546.018-.697.085v.036h.033c.137.267.372.445.546.667.205.267.41.534.615.8l.035-.04c.376-.267.564-.623.564-1.2-.155-.178-.195-.356-.34-.534-.172-.178-.55-.267-.756-.445z"/>
  <path fill="#00758F" d="M126.405.048c-7.248.378-12.858 1.778-17.6 4.266-1.33.712-3.462 2.667-3.462 2.667.712 1.512 1.245 3.11 1.778 4.71.178.534.356 1.067.534 1.6.178.356.445.622.712.889.267.267.623.445.978.445.267 0 .534-.178.712-.356.267-.267.445-.622.445-1.067v-.089c.267-.8.623-1.512 1.067-2.223 2.223-3.2 5.512-5.156 9.423-5.867 1.156-.178 2.4-.267 3.644-.267 2.045 0 4.178.267 6.222.8 4.8 1.245 8.89 3.556 12.8 6.4.8.534 1.512 1.156 2.223 1.778.267.267.445.534.8.712.356.178.712.089 1.067 0 .267-.089.534-.267.712-.445.267-.267.445-.623.445-1.067.089-.623-.089-1.245-.445-1.778-.267-.356-.623-.622-.978-.889-1.6-1.334-3.29-2.49-5.067-3.556-5.156-3.11-10.756-5.334-16.8-6.222-2.223-.356-4.444-.534-6.756-.534-1.155 0-2.31.089-3.466.089zm-19.378 21.511c-.178 0-.267 0-.445.089-.089 0-.178.089-.267.089-.089.089-.178.178-.267.267-.089.089-.089.267-.089.356v.445c0 .178.089.356.178.534.089.178.267.267.445.356.178.089.356.178.534.178.178 0 .356-.089.534-.178.178-.089.267-.267.356-.445.089-.178.178-.356.178-.534 0-.178-.089-.356-.178-.534-.089-.178-.267-.267-.445-.356-.178-.089-.267-.178-.445-.178-.089-.089-.178-.089-.267-.089zm81.92 1.778c-.267.089-.445.267-.623.445-.178.267-.267.534-.267.889v.089c-.089.445 0 .889.267 1.245.267.356.623.623 1.067.712.445.089.889 0 1.245-.267.356-.267.623-.623.712-1.067.089-.445 0-.889-.267-1.245-.267-.356-.623-.623-1.067-.712h-.178c-.356 0-.623.089-.889.267zm-81.92 2.845c-4.8.089-9.512.623-14.133 1.6-11.29 2.31-21.334 6.845-29.512 13.512-.8.622-1.512 1.334-2.223 2.045-.267.267-.445.534-.623.8-.178.267-.267.623-.267.978.089.356.178.623.356.889.178.267.445.445.712.534.267.089.534.089.8 0 .356-.089.623-.267.889-.534.178-.178.356-.356.534-.534.8-.8 1.6-1.512 2.49-2.223 7.556-6.222 16.622-10.4 26.4-12.445 4.356-.889 8.8-1.334 13.245-1.334 2.223 0 4.444.089 6.667.267 9.156.8 18.134 3.29 26.4 7.29.8.356 1.6.8 2.4 1.245.267.178.534.267.8.356.356.089.712 0 1.067-.089.267-.089.534-.267.712-.534.267-.267.356-.623.356-.978 0-.356-.089-.712-.356-.978-.178-.267-.445-.445-.712-.623-.89-.534-1.778-.978-2.667-1.423-8.8-4.267-18.4-6.934-28.09-7.823-2.133-.178-4.266-.267-6.4-.267-1.6 0-3.11.089-4.71.089zm-29.245 21.956c-.356.089-.712.267-.978.534-.267.267-.445.623-.534.978-.089.356-.089.8.089 1.156.089.356.356.712.623.978.267.267.623.445.978.534.356.089.8.089 1.156-.089.356-.089.712-.356.978-.623.267-.267.445-.623.534-.978.089-.356.089-.8-.089-1.156-.089-.356-.356-.712-.623-.978-.267-.267-.623-.445-.978-.534-.178-.089-.445-.089-.623-.089-.178 0-.356 0-.534.089zm-22.4 4.978c-.356.089-.712.267-.978.534-.267.267-.445.623-.534.978-.089.356-.089.8.089 1.156.089.356.356.712.623.978.267.267.623.445.978.534.356.089.8.089 1.156-.089.356-.089.712-.356.978-.623.267-.267.445-.623.534-.978.089-.356.089-.8-.089-1.156-.089-.356-.356-.712-.623-.978-.267-.267-.623-.445-.978-.534-.178-.089-.445-.089-.623-.089-.267 0-.356 0-.534.089zm-10.845 9.956c-.356.089-.712.267-.978.534-.267.267-.445.623-.534.978-.089.356-.089.8.089 1.156.089.356.356.712.623.978.267.267.623.445.978.534.356.089.8.089 1.156-.089.356-.089.712-.356.978-.623.267-.267.445-.623.534-.978.089-.356.089-.8-.089-1.156-.089-.356-.356-.712-.623-.978-.267-.267-.623-.445-.978-.534-.178-.089-.445-.089-.623-.089-.267 0-.356 0-.534.089zm-9.6 10.934c-.356.089-.712.267-.978.534-.267.267-.445.623-.534.978-.089.356-.089.8.089 1.156.089.356.356.712.623.978.267.267.623.445.978.534.356.089.8.089 1.156-.089.356-.089.712-.356.978-.623.267-.267.445-.623.534-.978.089-.356.089-.8-.089-1.156-.089-.356-.356-.712-.623-.978-.267-.267-.623-.445-.978-.534-.178-.089-.445-.089-.623-.089-.267 0-.356 0-.534.089zm-9.156 11.023c-.356.089-.712.267-.978.534-.267.267-.445.623-.534.978-.089.356-.089.8.089 1.156.089.356.356.712.623.978.267.267.623.445.978.534.356.089.8.089 1.156-.089.356-.089.712-.356.978-.623.267-.267.445-.623.534-.978.089-.356.089-.8-.089-1.156-.089-.356-.356-.712-.623-.978-.267-.267-.623-.445-.978-.534-.178-.089-.445-.089-.623-.089-.267 0-.356 0-.534.089zm146.756 1.512c-1.156 0-2.223.089-3.29.267-4.8.623-9.067 3.11-12.178 6.756-3.11 3.644-4.8 8.267-4.8 13.156 0 3.556.8 7.023 2.4 10.134.178.356.445.623.8.8.356.178.712.178 1.067.089.356-.089.623-.356.8-.712.178-.356.178-.712.089-1.067-.089-.178-.089-.356-.178-.534-1.334-2.667-2.045-5.6-2.045-8.623 0-4.267 1.423-8.267 4.089-11.378 2.667-3.11 6.4-5.245 10.489-5.778.978-.089 1.956-.178 2.934-.089 3.733.178 7.29 1.6 10.134 3.911 2.845 2.4 4.8 5.6 5.6 9.245.445 2.134.534 4.267.267 6.4-.8 6.667-5.156 12.356-11.378 14.845-2.134.8-4.356 1.245-6.667 1.245-1.956 0-3.911-.356-5.778-.978-.356-.089-.712-.089-1.067.089-.356.178-.623.445-.712.8-.089.356-.089.712.089 1.067.178.356.445.623.8.712 2.223.8 4.534 1.156 6.845 1.156 2.667 0 5.334-.534 7.823-1.512 7.29-2.934 12.356-9.512 13.245-17.245.356-2.4.267-4.8-.267-7.2-.978-4.267-3.29-8-6.578-10.845-3.29-2.756-7.378-4.356-11.734-4.534-.267-.089-.534-.089-.8-.089zm-155.823 9.6c-.356.089-.712.267-.978.534-.267.267-.445.623-.534.978-.089.356-.089.8.089 1.156.089.356.356.712.623.978.267.267.623.445.978.534.356.089.8.089 1.156-.089.356-.089.712-.356.978-.623.267-.267.445-.623.534-.978.089-.356.089-.8-.089-1.156-.089-.356-.356-.712-.623-.978-.267-.267-.623-.445-.978-.534-.178-.089-.445-.089-.623-.089-.267 0-.356 0-.534.089zm9.956 9.778c-.356.089-.712.267-.978.534-.267.267-.445.623-.534.978-.089.356-.089.8.089 1.156.089.356.356.712.623.978.267.267.623.445.978.534.356.089.8.089 1.156-.089.356-.089.712-.356.978-.623.267-.267.445-.623.534-.978.089-.356.089-.8-.089-1.156-.089-.356-.356-.712-.623-.978-.267-.267-.623-.445-.978-.534-.178-.089-.445-.089-.623-.089-.267 0-.356 0-.534.089zm10.045 9.778c-.356.089-.712.267-.978.534-.267.267-.445.623-.534.978-.089.356-.089.8.089 1.156.089.356.356.712.623.978.267.267.623.445.978.534.356.089.8.089 1.156-.089.356-.089.712-.356.978-.623.267-.267.445-.623.534-.978.089-.356.089-.8-.089-1.156-.089-.356-.356-.712-.623-.978-.267-.267-.623-.445-.978-.534-.178-.089-.445-.089-.623-.089-.267 0-.356 0-.534.089zm11.556 8.178c-.356.089-.712.267-.978.534-.267.267-.445.623-.534.978-.089.356-.089.8.089 1.156.089.356.356.712.623.978.267.267.623.445.978.534.356.089.8.089 1.156-.089.356-.089.712-.356.978-.623.267-.267.445-.623.534-.978.089-.356.089-.8-.089-1.156-.089-.356-.356-.712-.623-.978-.267-.267-.623-.445-.978-.534-.178-.089-.445-.089-.623-.089-.267 0-.356 0-.534.089zm12.889 6.667c-.356.089-.712.267-.978.534-.267.267-.445.623-.534.978-.089.356-.089.8.089 1.156.089.356.356.712.623.978.267.267.623.445.978.534.356.089.8.089 1.156-.089.356-.089.712-.356.978-.623.267-.267.445-.623.534-.978.089-.356.089-.8-.089-1.156-.089-.356-.356-.712-.623-.978-.267-.267-.623-.445-.978-.534-.178-.089-.445-.089-.623-.089-.267 0-.356 0-.534.089zm14.222 3.822c-.356.089-.712.267-.978.534-.267.267-.445.623-.534.978-.089.356-.089.8.089 1.156.089.356.356.712.623.978.267.267.623.445.978.534.356.089.8.089 1.156-.089.356-.089.712-.356.978-.623.267-.267.445-.623.534-.978.089-.356.089-.8-.089-1.156-.089-.356-.356-.712-.623-.978-.267-.267-.623-.445-.978-.534-.178-.089-.445-.089-.623-.089-.267 0-.356 0-.534.089zm15.378 1.245c-.356.089-.712.267-.978.534-.267.267-.445.623-.534.978-.089.356-.089.8.089 1.156.089.356.356.712.623.978.267.267.623.445.978.534.356.089.8.089 1.156-.089.356-.089.712-.356.978-.623.267-.267.445-.623.534-.978.089-.356.089-.8-.089-1.156-.089-.356-.356-.712-.623-.978-.267-.267-.623-.445-.978-.534-.178-.089-.445-.089-.623-.089-.267 0-.356 0-.534.089zm16.356.267c-.356.089-.712.267-.978.534-.267.267-.445.623-.534.978-.089.356-.089.8.089 1.156.089.356.356.712.623.978.267.267.623.445.978.534.356.089.8.089 1.156-.089.356-.089.712-.356.978-.623.267-.267.445-.623.534-.978.089-.356.089-.8-.089-1.156-.089-.356-.356-.712-.623-.978-.267-.267-.623-.445-.978-.534-.178-.089-.445-.089-.623-.089-.267 0-.356 0-.534.089z"/>
</svg>
