<svg xmlns="http://www.w3.org/2000/svg" width="24" height="24" viewBox="0 0 24 24">
  <path fill="#000000" d="M12 0C5.373 0 0 5.373 0 12s5.373 12 12 12 12-5.373 12-12S18.627 0 12 0zm.04 4.5c2.51 0 4.55 2.04 4.55 4.55 0 2.51-2.04 4.55-4.55 4.55-2.51 0-4.55-2.04-4.55-4.55 0-2.51 2.04-4.55 4.55-4.55zm6.53 10.61c-.64.42-1.4.77-2.23 1.04-1.37.45-2.78.66-4.25.66-1.25 0-2.45-.17-3.61-.51-.96-.28-1.87-.71-2.72-1.31l1.77-2.04c.56.44 1.15.8 1.76 1.08.87.4 1.78.6 2.75.6 1.15 0 2.26-.18 3.33-.53.6-.19 1.17-.44 1.71-.75l1.49 1.76z"/>
</svg>
